<svg xmlns="http://www.w3.org/2000/svg" width="11.621" height="10.946" viewBox="0 0 11.621 10.946">
    <defs>
        <style>
            .cls-1{fill:#fff}
        </style>
    </defs>
    <g id="그룹_114" data-name="그룹 114">
        <path id="패스_63" data-name="패스 63" class="cls-1" d="M130.425 721.92a1.032 1.032 0 0 1-.567-.17l-4.092-2.687h-1.359a1.241 1.241 0 0 1-1.24-1.24v-2.753a1.241 1.241 0 0 1 1.24-1.24h1.359l4.092-2.687a1.033 1.033 0 0 1 1.6.864v8.88a1.034 1.034 0 0 1-1.033 1.033zm-6.019-7.27a.421.421 0 0 0-.421.421v2.753a.421.421 0 0 0 .421.421h1.6l4.3 2.821a.214.214 0 0 0 .331-.179v-8.88a.214.214 0 0 0-.331-.179l-4.3 2.821z" transform="translate(-123.167 -710.974)"/>
        <path id="패스_64" data-name="패스 64" class="cls-1" d="M391.255 867.459h-2.1a.41.41 0 1 1 0-.819h2.1a.41.41 0 1 1 0 .819z" transform="translate(-380.044 -861.538)"/>
        <path id="패스_65" data-name="패스 65" class="cls-1" d="M389.156 795a.41.41 0 0 1-.205-.765l1.816-1.049a.41.41 0 1 1 .41.71l-1.817 1.049a.408.408 0 0 1-.204.055z" transform="translate(-380.042 -790.436)"/>
        <path id="패스_66" data-name="패스 66" class="cls-1" d="M390.972 910.015a.408.408 0 0 1-.2-.055l-1.817-1.049a.41.41 0 0 1 .41-.71l1.817 1.049a.41.41 0 0 1-.205.764z" transform="translate(-380.042 -901.684)"/>
    </g>
</svg>
