<svg xmlns="http://www.w3.org/2000/svg" width="7.499" height="13.123" viewBox="0 0 7.499 13.123">
    <defs>
        <style>
            .cls-1{fill:#fff}
        </style>
    </defs>
    <g id="그룹_113" data-name="그룹 113">
        <path id="패스_59" data-name="패스 59" class="cls-1" d="M199 895.1a.435.435 0 1 0-.871 0 2.879 2.879 0 0 1-5.757 0 .435.435 0 1 0-.871 0 3.755 3.755 0 0 0 3.314 3.724v1.75h-.749a.435.435 0 1 0 0 .871h2.368a.435.435 0 1 0 0-.871h-.749v-1.75A3.755 3.755 0 0 0 199 895.1z" transform="translate(-191.5 -888.323)"/>
        <path id="패스_60" data-name="패스 60" class="cls-1" d="M228.709 721.676a2.545 2.545 0 0 0 2.542-2.542v-4.092a2.542 2.542 0 1 0-5.084 0v4.092a2.545 2.545 0 0 0 2.542 2.542zm-1.671-6.634a1.671 1.671 0 1 1 3.343 0v4.092a1.671 1.671 0 0 1-3.343 0z" transform="translate(-224.96 -712.5)"/>
    </g>
</svg>
