<svg xmlns="http://www.w3.org/2000/svg" width="27.083" height="21.875" viewBox="0 0 27.083 21.875">
    <path data-name="패스 143" d="M14.542 4C8.386 4 3.13 8.535 1 14.938c2.13 6.4 7.386 10.937 13.542 10.937s11.412-4.535 13.541-10.937C25.954 8.535 20.7 4 14.542 4zm0 18.229c-3.4 0-6.155-3.267-6.155-7.292s2.758-7.292 6.155-7.292 6.158 3.268 6.158 7.293-2.761 7.291-6.158 7.291zm0-11.667c-2.044 0-3.693 1.954-3.693 4.375s1.65 4.375 3.693 4.375 3.693-1.954 3.693-4.375-1.65-4.374-3.693-4.374z" transform="translate(-1 -4)" style="fill:#fff"/>
</svg>
