<svg xmlns="http://www.w3.org/2000/svg" width="45" height="45" viewBox="0 0 45 45">
    <path data-name="패스 136" d="M0 0h45v45H0z" style="fill:none"/>
    <path data-name="패스 137" d="M37.668 24.468A14.6 14.6 0 0 0 37.8 22.5a11.923 11.923 0 0 0-.149-1.968l4.313-3.308a1.017 1.017 0 0 0 .255-1.277L38.136 9a1.045 1.045 0 0 0-1.253-.461l-5.077 2.01a15.062 15.062 0 0 0-3.442-1.968L27.6 3.258a1.023 1.023 0 0 0-1.02-.858h-8.159a1 1 0 0 0-1 .858l-.765 5.318a15.394 15.394 0 0 0-3.442 1.968L8.139 8.535A1.021 1.021 0 0 0 6.885 9l-4.057 6.947a.943.943 0 0 0 .255 1.277L7.4 20.532a11.483 11.483 0 0 0-.042 3.936L3.04 27.776a1.017 1.017 0 0 0-.255 1.277L6.864 36a1.045 1.045 0 0 0 1.253.461l5.077-2.01a15.062 15.062 0 0 0 3.442 1.968l.765 5.318a1.04 1.04 0 0 0 1.02.858h8.158a.986.986 0 0 0 1-.858l.765-5.318a14.624 14.624 0 0 0 3.442-1.968l5.077 2.01A1.021 1.021 0 0 0 38.115 36l4.079-6.951a.96.96 0 0 0-.255-1.277zM22.5 30.038a7.538 7.538 0 1 1 7.648-7.538 7.616 7.616 0 0 1-7.648 7.538z" style="fill:#fff"/>
</svg>
