<svg xmlns="http://www.w3.org/2000/svg" width="53" height="37.75" viewBox="0 0 53 37.75">
    <defs>
        <style>
            .cls-1{fill:#fff}
        </style>
    </defs>
    <g id="그룹_431" data-name="그룹 431" transform="translate(-24 -623)">
        <g id="그룹_428" data-name="그룹 428" transform="translate(24 623)">
            <path id="패스_124" data-name="패스 124" class="cls-1" d="M702.132 955.115h-30.774a6.85 6.85 0 0 1-6.709-6.968v-4.957l-6.6-3.311a4.1 4.1 0 0 1 0-7.28l6.6-3.31v-4.957a6.85 6.85 0 0 1 6.709-6.968h30.774a6.85 6.85 0 0 1 6.709 6.968v23.814a6.85 6.85 0 0 1-6.709 6.969zm-30.774-35a4.1 4.1 0 0 0-3.955 4.215v5.806a1.377 1.377 0 0 1-.76 1.231l-7.361 3.691a1.353 1.353 0 0 0 0 2.357l7.361 3.691a1.377 1.377 0 0 1 .76 1.23v5.806a4.1 4.1 0 0 0 3.955 4.215h30.774a4.1 4.1 0 0 0 3.956-4.215v-23.809a4.1 4.1 0 0 0-3.956-4.215z" transform="translate(-655.841 -917.365)"/>
        </g>
        <g id="그룹_429" data-name="그룹 429" transform="translate(40.516 633.028)">
            <circle id="타원_106" data-name="타원 106" class="cls-1" cx="3.528" cy="3.528" transform="rotate(-82.982 5.002 2.323)" r="3.528"/>
            <circle id="타원_107" data-name="타원 107" class="cls-1" cx="3.528" cy="3.528" transform="translate(20.117 .405)" r="3.528"/>
            <ellipse id="타원_108" data-name="타원 108" class="cls-1" cx="4.235" cy="4.234" rx="4.235" ry="4.234" transform="translate(10.597 1.812)"/>
            <path id="패스_78" data-name="패스 78" class="cls-1" d="M214.348 333.9a9.517 9.517 0 0 0-1.261 3.831.339.339 0 0 0 .145.315 16.012 16.012 0 0 0 14.344 0 .339.339 0 0 0 .145-.315 9.516 9.516 0 0 0-1.261-3.831 8 8 0 0 0-2.484-2.618.353.353 0 0 0-.39.015 5.668 5.668 0 0 1-6.364 0 .379.379 0 0 0-.212-.067.325.325 0 0 0-.178.052 8 8 0 0 0-2.484 2.618z" transform="translate(-205.572 -321.03)"/>
            <path id="패스_79" data-name="패스 79" class="cls-1" d="M341.22 308.509a.2.2 0 0 0 .086-.187 7.848 7.848 0 0 0-1.04-3.16 6.582 6.582 0 0 0-2.044-2.156.214.214 0 0 0-.236.012 4.8 4.8 0 0 1-5.393 0 .236.236 0 0 0-.131-.042.192.192 0 0 0-.1.03 6.517 6.517 0 0 0-1.873 1.886c.03.016.059.033.088.052a8.965 8.965 0 0 1 2.788 2.934 10.12 10.12 0 0 1 .909 2c.335.021.675.033 1.02.033a11.274 11.274 0 0 0 5.926-1.402z" transform="translate(-311.644 -295.501)"/>
            <path id="패스_80" data-name="패스 80" class="cls-1" d="M142.26 309.875a10.12 10.12 0 0 1 .909-2 8.966 8.966 0 0 1 2.788-2.934q.043-.028.088-.052a6.515 6.515 0 0 0-1.873-1.886.214.214 0 0 0-.236.012 4.8 4.8 0 0 1-5.393 0 .214.214 0 0 0-.236-.012 6.582 6.582 0 0 0-2.044 2.156 7.848 7.848 0 0 0-1.04 3.16.2.2 0 0 0 .086.187 11.274 11.274 0 0 0 5.931 1.4c.345.002.685-.006 1.02-.031z" transform="translate(-135.222 -295.501)"/>
        </g>
    </g>
</svg>
