<svg id="그룹_169" data-name="그룹 169" xmlns="http://www.w3.org/2000/svg" width="53" height="33.501" viewBox="0 0 53 33.501">
    <defs>
        <style>
            .cls-1{fill:#fff}
        </style>
    </defs>
    <path id="패스_84" data-name="패스 84" class="cls-1" d="M169.906 159.109a1.431 1.431 0 0 0 .837-.269l9.872-7.115a1.26 1.26 0 0 0 0-2.073l-9.872-7.115a1.442 1.442 0 0 0-1.452-.133 1.292 1.292 0 0 0-.77 1.169v4.478a9.043 9.043 0 0 0-5.682 1.993c-2.035 1.739-3.067 4.472-3.067 8.125a.95.95 0 0 0 .736.907 1.022 1.022 0 0 0 1.119-.433 10.706 10.706 0 0 1 2.069-2.264 9.49 9.49 0 0 1 4.826-2.2v3.62a1.291 1.291 0 0 0 .77 1.169 1.453 1.453 0 0 0 .614.141z" transform="translate(-143.966 -135.192)"/>
    <path id="패스_85" data-name="패스 85" class="cls-1" d="M48.717 118.308h38.722a3.852 3.852 0 0 0 3.848-3.848V91.014a3.852 3.852 0 0 0-3.848-3.848H48.717a3.852 3.852 0 0 0-3.848 3.848v23.446a3.852 3.852 0 0 0 3.848 3.848zm38.722-28.813a1.521 1.521 0 0 1 1.519 1.519v23.446a1.521 1.521 0 0 1-1.519 1.519H48.717a1.521 1.521 0 0 1-1.517-1.519V91.014a1.521 1.521 0 0 1 1.519-1.519z" transform="translate(-41.578 -87.166)"/>
    <path id="패스_86" data-name="패스 86" class="cls-1" d="M10.7 424.162h50.671a1.164 1.164 0 1 0 0-2.329H10.7a1.164 1.164 0 1 0 0 2.329z" transform="translate(-9.535 -390.66)"/>
</svg>
