<svg xmlns="http://www.w3.org/2000/svg" width="14.174" height="8.379" viewBox="0 0 14.174 8.379">
    <g data-name="그룹 448">
        <path data-name="패스 150" d="M344.746 1200.8a.477.477 0 0 0-.461-.024l-2.355 1.151v-.719a1.346 1.346 0 0 0-1.391-1.292h-8.351a1.346 1.346 0 0 0-1.391 1.292v5.8a1.346 1.346 0 0 0 1.391 1.291h8.351a1.346 1.346 0 0 0 1.391-1.291v-.719l2.355 1.15a.476.476 0 0 0 .686-.428v-5.8a.477.477 0 0 0-.225-.411zm-3.769 6.2a.4.4 0 0 1-.439.339h-8.351a.4.4 0 0 1-.439-.339v-5.8a.4.4 0 0 1 .439-.339h8.351a.4.4 0 0 1 .439.339v5.8zm3.04-.76-2.087-1.02v-2.237l2.087-1.02z" transform="translate(-330.796 -1199.918)" style="fill:#fff"/>
    </g>
</svg>
