<svg xmlns="http://www.w3.org/2000/svg" width="30" height="30" viewBox="0 0 30 30">
    <path data-name="패스 144" d="M0 0h30v30H0zm0 0h30v30H0zm0 0h30v30H0zm0 0h30v30H0z" style="fill:none"/>
    <path data-name="패스 145" d="M15 7.689a6.507 6.507 0 0 1 6.364 6.637 6.919 6.919 0 0 1-.305 1.938l3.895 4.062A15.683 15.683 0 0 0 29 14.313a15.086 15.086 0 0 0-14-9.942 14.514 14.514 0 0 0-4.633.757l2.762 2.881A6.3 6.3 0 0 1 15 7.689zM3.176 3.256a1.362 1.362 0 0 0 0 1.872l2.508 2.614A15.753 15.753 0 0 0 1 14.326a15.08 15.08 0 0 0 14 9.956 14.579 14.579 0 0 0 5.485-1.088l3.462 3.606a1.231 1.231 0 0 0 1.795 0 1.362 1.362 0 0 0 0-1.872L4.984 3.256a1.246 1.246 0 0 0-1.808 0zM15 20.964a6.507 6.507 0 0 1-6.364-6.637 6.751 6.751 0 0 1 .624-2.841l2 2.084a4.747 4.747 0 0 0-.076.757A3.9 3.9 0 0 0 15 18.309a3.3 3.3 0 0 0 .725-.093l2 2.084a5.919 5.919 0 0 1-2.725.664zm3.78-7.075a3.863 3.863 0 0 0-3.36-3.5z" style="fill:#fff"/>
</svg>
