<svg xmlns="http://www.w3.org/2000/svg" width="57.794" height="56.822" viewBox="0 0 57.794 56.822">
    <defs>
        <clipPath id="clip-path">
            <path id="패스_98" data-name="패스 98" class="cls-1" d="m48.187 266.9 28.8-16.738L105.98 266.9l-28.8 16.738z" transform="translate(-48.187 -250.161)"/>
        </clipPath>
        <style>
            .cls-1,.cls-4{fill:#fff}.cls-1{stroke:#fff;stroke-linecap:round;stroke-linejoin:round;stroke-width:2px}
        </style>
    </defs>
    <g id="그룹_171" data-name="그룹 171" transform="translate(-48.187 -46.054)">
        <g id="그룹_162" data-name="그룹 162" transform="translate(48.187 69.4)">
            <g id="그룹_161" data-name="그룹 161">
                <g id="그룹_160" data-name="그룹 160" style="isolation:isolate">
                    <g id="그룹_159" data-name="그룹 159" style="clip-path:url(#clip-path)">
                        <g id="그룹_158" data-name="그룹 158" transform="translate(2.055 1.191)">
                            <g id="그룹_157" data-name="그룹 157">
                                <g id="그룹_156" data-name="그룹 156">
                                    <g id="그룹_155" data-name="그룹 155">
                                        <path id="패스_97" data-name="패스 97" class="cls-1" d="M70.036 276.743a.661.661 0 0 1-.007-1.25l21.816-12.678a2.381 2.381 0 0 1 2.157 0l21.959 12.678a.661.661 0 0 1 .007 1.25l-21.816 12.678a2.381 2.381 0 0 1-2.157 0l-21.959-12.678m48.343-2.655L96.42 261.41a7.736 7.736 0 0 0-7.01 0l-21.816 12.678c-1.926 1.119-1.916 2.941.023 4.06l21.959 12.678a7.735 7.735 0 0 0 7.01 0l21.814-12.678c1.926-1.119 1.916-2.941-.023-4.06" transform="translate(-66.156 -260.571)"/>
                                    </g>
                                </g>
                            </g>
                        </g>
                    </g>
                </g>
            </g>
        </g>
        <path id="패스_99" data-name="패스 99" class="cls-4" d="M228.35 139.146h-.071a9.33 9.33 0 0 0-9.33 9.33 16.017 16.017 0 0 0 1.3 5.91l6.478 15.018a1.724 1.724 0 0 0 3.176 0l6.478-15.018a16.015 16.015 0 0 0 1.3-5.91 9.33 9.33 0 0 0-9.331-9.33zm-.035 13.478a4.541 4.541 0 1 1 4.541-4.541 4.541 4.541 0 0 1-4.542 4.541z" transform="translate(-151.231 -85.444)"/>
        <path id="패스_100" data-name="패스 100" class="cls-4" d="M180.515 58.789a1.708 1.708 0 0 1-.866-.236l-15-8.8-15 8.8a1.716 1.716 0 0 1-1.736-2.96l15.862-9.3a1.717 1.717 0 0 1 .868-.236h.021a1.717 1.717 0 0 1 .868.236l15.862 9.3a1.716 1.716 0 0 1-.87 3.2z" transform="translate(-87.56)"/>
    </g>
</svg>
