<svg xmlns="http://www.w3.org/2000/svg" width="30.013" height="21.377" viewBox="0 0 30.013 21.377">
    <defs>
        <style>
            .cls-1{fill:#fff}
        </style>
    </defs>
    <g id="그룹_393" data-name="그룹 393" transform="translate(-655.841 -917.365)">
        <g id="그룹_216" data-name="그룹 216" transform="translate(667.497 922.942)">
            <path id="패스_121" data-name="패스 121" class="cls-1" d="M891.472 1026.239h-10.566a.78.78 0 0 1 0-1.559h10.566a.78.78 0 1 1 0 1.559z" transform="translate(-880.126 -1024.68)"/>
            <path id="패스_122" data-name="패스 122" class="cls-1" d="M891.472 1109.59h-10.566a.78.78 0 0 1 0-1.559h10.566a.78.78 0 1 1 0 1.559z" transform="translate(-880.126 -1103.699)"/>
            <path id="패스_123" data-name="패스 123" class="cls-1" d="M891.472 1192.942h-10.566a.78.78 0 0 1 0-1.559h10.566a.78.78 0 1 1 0 1.559z" transform="translate(-880.126 -1182.719)"/>
        </g>
        <path id="패스_124" data-name="패스 124" class="cls-1" d="M682.055 938.742h-17.427a3.879 3.879 0 0 1-3.8-3.946v-2.807l-3.738-1.875a2.324 2.324 0 0 1 0-4.122l3.738-1.875v-2.807a3.879 3.879 0 0 1 3.8-3.946h17.427a3.879 3.879 0 0 1 3.8 3.946v13.49a3.879 3.879 0 0 1-3.8 3.942zm-17.427-19.818a2.32 2.32 0 0 0-2.24 2.387v3.289a.78.78 0 0 1-.43.7l-4.168 2.09a.766.766 0 0 0 0 1.335l4.168 2.09a.78.78 0 0 1 .43.7v3.285a2.32 2.32 0 0 0 2.24 2.387h17.427a2.32 2.32 0 0 0 2.24-2.387v-13.489a2.32 2.32 0 0 0-2.24-2.387z"/>
    </g>
</svg>
