<svg xmlns="http://www.w3.org/2000/svg" width="37" height="37" viewBox="0 0 37 37">
    <g data-name="그룹 410">
        <g data-name="그룹 405">
            <g data-name="그룹 411" transform="translate(-1847 -1005)">
                <circle data-name="타원 170" cx="18.5" cy="18.5" r="18.5" transform="translate(1847 1005)" style="opacity:.5;fill:#fff"/>
                <g data-name="그룹 477">
                    <path data-name="패스 150" d="M354.909 1201.445a.824.824 0 0 0-.8-.041l-4.07 1.989v-1.243a2.326 2.326 0 0 0-2.405-2.232H333.2a2.326 2.326 0 0 0-2.405 2.232v10.019a2.326 2.326 0 0 0 2.405 2.232h14.434a2.326 2.326 0 0 0 2.405-2.232v-1.243l4.07 1.989a.823.823 0 0 0 1.185-.74v-10.031a.824.824 0 0 0-.385-.699zm-6.515 10.724a.7.7 0 0 1-.758.585H333.2a.7.7 0 0 1-.758-.585v-10.019a.7.7 0 0 1 .758-.585h14.434a.7.7 0 0 1 .758.585v10.019zm5.255-1.313-3.608-1.763v-3.867l3.608-1.763z" transform="translate(1522.704 -183.918)" style="fill:#fff"/>
                </g>
            </g>
        </g>
    </g>
</svg>
