<svg xmlns="http://www.w3.org/2000/svg" width="51.874" height="32.727" viewBox="0 0 51.874 32.727">
    <defs>
        <style>
            .cls-1{fill:#fff}
        </style>
    </defs>
    <g id="그룹_167" data-name="그룹 167" transform="translate(-24 -1004.363)">
        <circle id="타원_106" data-name="타원 106" class="cls-1" cx="6.17" cy="6.17" r="6.17" transform="rotate(-82.982 588.54 492.676)"/>
        <circle id="타원_107" data-name="타원 107" class="cls-1" cx="6.17" cy="6.17" r="6.17" transform="translate(59.18 1005.071)"/>
        <circle id="타원_108" data-name="타원 108" class="cls-1" cx="7.405" cy="7.405" r="7.405" transform="translate(42.532 1007.531)"/>
        <path id="패스_78" data-name="패스 78" class="cls-1" d="M215.294 335.9a16.643 16.643 0 0 0-2.206 6.7.592.592 0 0 0 .254.55c2.767 1.857 7.456 2.966 12.542 2.966s9.775-1.109 12.542-2.966a.593.593 0 0 0 .254-.551 16.642 16.642 0 0 0-2.206-6.7 13.981 13.981 0 0 0-4.344-4.579.617.617 0 0 0-.681.027 9.913 9.913 0 0 1-11.129 0 .662.662 0 0 0-.371-.117.568.568 0 0 0-.311.09 13.982 13.982 0 0 0-4.344 4.58z" transform="translate(-175.947 690.972)"/>
        <path id="패스_79" data-name="패스 79" class="cls-1" d="M349.259 312.651a.351.351 0 0 0 .15-.326 13.725 13.725 0 0 0-1.819-5.526 11.51 11.51 0 0 0-3.575-3.77.374.374 0 0 0-.413.021 8.4 8.4 0 0 1-9.431 0 .412.412 0 0 0-.23-.073.335.335 0 0 0-.183.052 11.4 11.4 0 0 0-3.276 3.3q.078.042.154.091a15.677 15.677 0 0 1 4.876 5.131 17.7 17.7 0 0 1 1.59 3.492c.586.037 1.181.058 1.784.058 4.214-.001 8.089-.917 10.373-2.45z" transform="translate(-273.537 714.459)"/>
        <path id="패스_80" data-name="패스 80" class="cls-1" d="M147.53 315.041a17.7 17.7 0 0 1 1.59-3.492 15.679 15.679 0 0 1 4.88-5.131q.076-.049.154-.091a11.393 11.393 0 0 0-3.276-3.3.374.374 0 0 0-.412.021 8.4 8.4 0 0 1-9.431 0 .374.374 0 0 0-.413-.021 11.51 11.51 0 0 0-3.575 3.77 13.726 13.726 0 0 0-1.819 5.526.351.351 0 0 0 .151.326c2.284 1.533 6.161 2.448 10.372 2.448.599.003 1.194-.019 1.779-.056z" transform="translate(-111.222 714.459)"/>
    </g>
</svg>
