<svg version="1.1" id="Layer_1" xmlns="http://www.w3.org/2000/svg" xmlns:xlink="http://www.w3.org/1999/xlink" x="0px" y="0px"
	 width="35" height="35" viewBox="0 0 128 128" enable-background="new 0 0 128 128" xml:space="preserve">
	  <defs>
        <style>
            .cls-1{fill:#fff;stroke:#fff;stroke-linecap:round;stroke-width:3px}
        </style>
    </defs>
<g>
	<g>
		<path class="cls-1" d="M120,0H24c-4.422,0-8,3.582-8,8v22.234c2.367-2.133,5.063-3.738,8-4.781V8h96v112H24v-17.453
			c-2.938-1.043-5.633-2.648-8-4.781V120c0,4.418,3.578,8,8,8h96c4.422,0,8-3.582,8-8V8C128,3.582,124.422,0,120,0z M88,16v96h24V16
			H88z M104,104h-8V24h8V104z M32,96c4.273,0,8.289-1.664,11.313-4.688c3.117-3.117,4.68-7.215,4.68-11.313H64
			c8.82,0,16-7.176,16-16c0-8.82-7.18-16-16-16H47.992c0-4.098-1.563-8.195-4.68-11.313C40.289,33.664,36.273,32,32,32
			s-8.289,1.664-11.313,4.688l-16,16C1.664,55.711,0,59.727,0,64s1.664,8.289,4.688,11.313l16,16C23.711,94.336,27.727,96,32,96z
			 M10.344,58.344l16-16C27.906,40.781,29.953,40,32,40s4.094,0.781,5.656,2.344c3.125,3.125,3.125,8.188,0,11.313L35.313,56H64
			c4.422,0,8,3.582,8,8s-3.578,8-8,8H35.313l2.344,2.344c3.125,3.125,3.125,8.188,0,11.313C36.094,87.219,34.047,88,32,88
			s-4.094-0.781-5.656-2.344l-16-16C7.219,66.531,7.219,61.469,10.344,58.344z"/>
	</g>
</g>
</svg>
